<?xml version="1.0" encoding="utf-8"?>
<!-- Generator: Adobe Illustrator 22.1.0, SVG Export Plug-In . SVG Version: 6.00 Build 0)  -->
<svg version="1.1" id="Layer_1" xmlns="http://www.w3.org/2000/svg" xmlns:xlink="http://www.w3.org/1999/xlink" x="0px" y="0px"
	 viewBox="0 0 595.3 793.7" style="enable-background:new 0 0 595.3 793.7;" xml:space="preserve">
<style type="text/css">
	.st0{fill:#487FB0;}
</style>
<g>
	<path class="st0" d="M429.9,257.9l0-0.2C429.9,257.8,429.9,257.8,429.9,257.9c-0.5,0.3-0.9,0.8-0.8,1.5c0,0,0,0,0,0
		c0.4,3.5,0.5,7.1,0.3,10.6c-5.2,92-47.9,126.1-62,135c-1.5,0.9-3.2-0.6-2.6-2.2c25-62.3,16.8-109.8,8.3-108.4
		c3.8,11.3,0.7,25.3-2.1,33.9c-1.5,4.6-3.6,9-6.2,13.1c-60,94.3-67,138.1-67,138.1s-7.5,26.4,9,57.6c0.7,1.4,2.5,1.9,3.9,1.1
		c23.8-14,208.2-129.1,121.2-279.7C431.4,257.7,430.5,257.6,429.9,257.9z"/>
	<path class="st0" d="M153.8,257.9l0-0.2C153.8,257.8,153.8,257.8,153.8,257.9c0.5,0.3,0.9,0.8,0.8,1.5c0,0,0,0,0,0
		c-0.4,3.5-0.5,7.1-0.3,10.6c5.2,92,47.9,126.1,62,135c1.5,0.9,3.2-0.6,2.6-2.2c-25-62.3-16.8-109.8-8.3-108.4
		c-3.8,11.3-0.7,25.3,2.1,33.9c1.5,4.6,3.6,9,6.2,13.1c60,94.3,67,138.1,67,138.1s7.5,26.4-9,57.6c-0.7,1.4-2.5,1.9-3.9,1.1
		c-23.8-14-208.2-129.1-121.2-279.7C152.3,257.7,153.2,257.6,153.8,257.9z"/>
	<circle class="st0" cx="292" cy="364.2" r="36.8"/>
</g>
</svg>
