<?xml version="1.0" encoding="utf-8"?>
<!-- Generator: Adobe Illustrator 22.1.0, SVG Export Plug-In . SVG Version: 6.00 Build 0)  -->
<svg version="1.1" id="Layer_1" xmlns="http://www.w3.org/2000/svg" xmlns:xlink="http://www.w3.org/1999/xlink" x="0px" y="0px"
	 viewBox="0 0 595.3 793.7" style="enable-background:new 0 0 595.3 793.7;" xml:space="preserve">
<style type="text/css">
	.st0{fill:#487FB0;}
	.st1{fill:#FFFFFF;}
	.st2{fill:none;stroke:#FFFFFF;stroke-width:3;stroke-miterlimit:10;}
</style>
<rect x="1020.4" y="-18.7" class="st0" width="75" height="75"/>
<path class="st0" d="M830.7,317.2l-86.1-51.9c-58.6-35.3-93.8-99.2-92.5-167.5l1.7-89.2c0.1-7,4-13.4,10.1-16.8l9.8-5.4
	c102.1-56.4,226.6-54,326.5,6.2l9.6,5.8c6,3.6,9.6,10.2,9.5,17.2l-1.7,89.2c-1.3,68.4-39,130.8-98.8,163.9L830.7,317.2z"/>
<path class="st1" d="M998.7-43.5l0-0.2C998.6-43.6,998.6-43.5,998.7-43.5c-0.6,0.3-1.1,0.9-1,1.7c0,0,0,0,0,0.1
	c0.5,4.2,0.6,8.4,0.4,12.6c-6.2,109.2-56.8,149.7-73.6,160.2c-1.7,1.1-3.8-0.7-3.1-2.6c29.7-73.9,20-130.3,9.9-128.7
	c4.5,13.5,0.8,30-2.5,40.3c-1.8,5.5-4.3,10.7-7.4,15.5c-71.2,111.9-79.5,163.9-79.5,163.9s-8.8,31.3,10.6,68.4
	c0.9,1.7,3,2.3,4.6,1.3c28.3-16.7,247.1-153.2,143.8-332C1000.4-43.7,999.4-43.8,998.7-43.5z"/>
<path class="st1" d="M671-43.5l0-0.2C671-43.6,671-43.5,671-43.5c0.6,0.3,1.1,0.9,1,1.7c0,0,0,0,0,0.1c-0.5,4.2-0.6,8.4-0.4,12.6
	c6.2,109.2,56.8,149.7,73.6,160.2c1.7,1.1,3.8-0.7,3.1-2.6c-29.7-73.9-20-130.3-9.9-128.7c-4.5,13.5-0.8,30,2.5,40.3
	c1.8,5.5,4.3,10.7,7.4,15.5c71.2,111.9,79.5,163.9,79.5,163.9s8.8,31.3-10.6,68.4c-0.9,1.7-3,2.3-4.6,1.3
	c-28.3-16.7-247.1-153.2-143.8-332C669.2-43.7,670.2-43.8,671-43.5z"/>
<circle class="st1" cx="835.6" cy="89" r="36.8"/>
<path class="st1" d="M438.7,236.7l0-0.2C438.6,236.6,438.6,236.7,438.7,236.7c-0.5,0.3-0.9,0.8-0.8,1.5c0,0,0,0,0,0
	c0.4,3.5,0.5,7.1,0.3,10.6c-5.2,92-47.9,126.1-62,135c-1.5,0.9-3.2-0.6-2.6-2.2c25-62.3,16.8-109.8,8.3-108.4
	c3.8,11.3,0.7,25.3-2.1,33.9c-1.5,4.6-3.6,9-6.2,13.1c-60,94.3-67,138.1-67,138.1s-7.5,26.4,9,57.6c0.7,1.4,2.5,1.9,3.9,1.1
	c23.8-14,208.2-129.1,121.2-279.7C440.1,236.5,439.3,236.4,438.7,236.7z"/>
<path class="st1" d="M162.6,236.7l0-0.2C162.6,236.6,162.6,236.7,162.6,236.7c0.5,0.3,0.9,0.8,0.8,1.5c0,0,0,0,0,0
	c-0.4,3.5-0.5,7.1-0.3,10.6c5.2,92,47.9,126.1,62,135c1.5,0.9,3.2-0.6,2.6-2.2c-25-62.3-16.8-109.8-8.3-108.4
	c-3.8,11.3-0.7,25.3,2.1,33.9c1.5,4.6,3.6,9,6.2,13.1c60,94.3,67,138.1,67,138.1s7.5,26.4-9,57.6c-0.7,1.4-2.5,1.9-3.9,1.1
	c-23.8-14-208.2-129.1-121.2-279.7C161.1,236.5,161.9,236.4,162.6,236.7z"/>
<g>
	<path class="st1" d="M300.8,383.3c-22.2,0-40.3-18.1-40.3-40.3s18.1-40.3,40.3-40.3s40.3,18.1,40.3,40.3S323,383.3,300.8,383.3z
		 M300.8,309.6c-18.4,0-33.3,15-33.3,33.3s15,33.3,33.3,33.3s33.3-15,33.3-33.3S319.2,309.6,300.8,309.6z"/>
</g>
<path class="st0" d="M970.2,247.2l0-0.2C970.2,247.1,970.2,247.2,970.2,247.2c-0.5,0.3-0.9,0.8-0.8,1.5c0,0,0,0,0,0
	c0.4,3.5,0.5,7.1,0.3,10.6c-5.2,92-47.9,126.1-62,135c-1.5,0.9-3.2-0.6-2.6-2.2c25-62.3,16.8-109.8,8.3-108.4
	c3.8,11.3,0.7,25.3-2.1,33.9c-1.5,4.6-3.6,9-6.2,13.1c-60,94.3-67,138.1-67,138.1s-7.5,26.4,9,57.6c0.7,1.4,2.5,1.9,3.9,1.1
	c23.8-14,208.2-129.1,121.2-279.7C971.7,247,970.9,246.9,970.2,247.2z"/>
<path class="st0" d="M694.1,247.2l0-0.2C694.2,247.1,694.2,247.2,694.1,247.2c0.5,0.3,0.9,0.8,0.8,1.5c0,0,0,0,0,0
	c-0.4,3.5-0.5,7.1-0.3,10.6c5.2,92,47.9,126.1,62,135c1.5,0.9,3.2-0.6,2.6-2.2c-25-62.3-16.8-109.8-8.3-108.4
	c-3.8,11.3-0.7,25.3,2.1,33.9c1.5,4.6,3.6,9,6.2,13.1c60,94.3,67,138.1,67,138.1s7.5,26.4-9,57.6c-0.7,1.4-2.5,1.9-3.9,1.1
	c-23.8-14-208.2-129.1-121.2-279.7C692.7,247,693.5,246.9,694.1,247.2z"/>
<circle class="st0" cx="832.4" cy="353.5" r="36.8"/>
<path class="st2" d="M805,22.2"/>
<path class="st2" d="M825.2,22.2"/>
</svg>
