<?xml version="1.0" encoding="utf-8"?>
<!-- Generator: Adobe Illustrator 22.1.0, SVG Export Plug-In . SVG Version: 6.00 Build 0)  -->
<svg version="1.1" id="Layer_1" xmlns="http://www.w3.org/2000/svg" xmlns:xlink="http://www.w3.org/1999/xlink" x="0px" y="0px"
	 viewBox="0 0 595.3 793.7" style="enable-background:new 0 0 595.3 793.7;" xml:space="preserve">
<style type="text/css">
	.st0{fill:#487FB0;}
	.st1{fill:#FFFFFF;}
	.st2{fill:none;stroke:#FFFFFF;stroke-width:3;stroke-miterlimit:10;}
</style>
<path class="st0" d="M308.4,581.7l-86.1-51.9c-58.6-35.3-93.8-99.2-92.5-167.5l1.7-89.2c0.1-7,4-13.4,10.1-16.8l9.8-5.4
	c102.1-56.4,226.6-54,326.5,6.2l9.6,5.8c6,3.6,9.6,10.2,9.5,17.2l-1.7,89.2c-1.3,68.4-39,130.8-98.8,163.9L308.4,581.7z"/>
<path class="st1" d="M476.3,221l0-0.2C476.3,220.9,476.3,221,476.3,221c-0.6,0.3-1.1,0.9-1,1.7c0,0,0,0,0,0.1
	c0.5,4.2,0.6,8.4,0.4,12.6c-6.2,109.2-56.8,149.7-73.6,160.2c-1.7,1.1-3.8-0.7-3.1-2.6c29.7-73.9,20-130.3,9.9-128.7
	c4.5,13.5,0.8,30-2.5,40.3c-1.8,5.5-4.3,10.7-7.4,15.5C327.7,432,319.4,484,319.4,484s-8.8,31.3,10.6,68.4c0.9,1.7,3,2.3,4.6,1.3
	c28.3-16.7,247.1-153.2,143.8-332C478,220.8,477.1,220.7,476.3,221z"/>
<path class="st1" d="M148.6,221l0-0.2C148.6,220.9,148.6,221,148.6,221c0.6,0.3,1.1,0.9,1,1.7c0,0,0,0,0,0.1
	c-0.5,4.2-0.6,8.4-0.4,12.6c6.2,109.2,56.8,149.7,73.6,160.2c1.7,1.1,3.8-0.7,3.1-2.6c-29.7-73.9-20-130.3-9.9-128.7
	c-4.5,13.5-0.8,30,2.5,40.3c1.8,5.5,4.3,10.7,7.4,15.5C297.2,432,305.5,484,305.5,484s8.8,31.3-10.6,68.4c-0.9,1.7-3,2.3-4.6,1.3
	c-28.3-16.7-247.1-153.2-143.8-332C146.9,220.8,147.9,220.7,148.6,221z"/>
<circle class="st1" cx="313.3" cy="353.5" r="36.8"/>
<path class="st2" d="M282.6,286.7"/>
<path class="st2" d="M302.8,286.7"/>
</svg>
