<?xml version="1.0" encoding="utf-8"?>
<!-- Generator: Adobe Illustrator 22.1.0, SVG Export Plug-In . SVG Version: 6.00 Build 0)  -->
<svg version="1.1" id="Layer_1" xmlns="http://www.w3.org/2000/svg" xmlns:xlink="http://www.w3.org/1999/xlink" x="0px" y="0px"
	 viewBox="0 0 595.3 793.7" style="enable-background:new 0 0 595.3 793.7;" xml:space="preserve">
<style type="text/css">
	.st0{fill:url(#SVGID_1_);}
	.st1{fill:url(#SVGID_2_);}
	.st2{fill:url(#SVGID_3_);}
	.st3{fill:url(#SVGID_4_);}
</style>
<g>
	<g>
		<linearGradient id="SVGID_1_" gradientUnits="userSpaceOnUse" x1="306.3458" y1="366.3257" x2="422.7647" y2="366.3257">
			<stop  offset="0" style="stop-color:#006AE9"/>
			<stop  offset="1" style="stop-color:#3C87BA"/>
		</linearGradient>
		<path class="st0" d="M404.3,263.6v-0.1C404.3,263.5,404.3,263.5,404.3,263.6c-0.4,0.2-0.7,0.6-0.6,1.1l0,0
			c0.3,2.6,0.4,5.2,0.2,7.8c-3.8,67.4-35.1,92.4-45.4,98.9c-1.1,0.7-2.3-0.4-1.9-1.6c18.3-45.6,12.3-80.4,6.1-79.4
			c2.8,8.3,0.5,18.5-1.5,24.8c-1.1,3.4-2.6,6.6-4.5,9.6c-43.9,69.1-49.1,101.1-49.1,101.1s-5.5,19.3,6.6,42.2c0.5,1,1.8,1.4,2.9,0.8
			c17.4-10.3,152.5-94.5,88.8-204.8C405.4,263.5,404.8,263.4,404.3,263.6z"/>
		<linearGradient id="SVGID_2_" gradientUnits="userSpaceOnUse" x1="300.1217" y1="366.3257" x2="183.9125" y2="366.3257">
			<stop  offset="0" style="stop-color:#006AE9"/>
			<stop  offset="1" style="stop-color:#3C87BA"/>
		</linearGradient>
		<path class="st1" d="M202.1,263.6v-0.1C202.1,263.5,202.1,263.5,202.1,263.6c0.4,0.2,0.7,0.6,0.6,1.1l0,0
			c-0.3,2.6-0.4,5.2-0.2,7.8c3.8,67.4,35.1,92.4,45.4,98.9c1.1,0.7,2.3-0.4,1.9-1.6c-18.3-45.6-12.3-80.4-6.1-79.4
			c-2.8,8.3-0.5,18.5,1.5,24.8c1.1,3.4,2.6,6.6,4.5,9.6c43.9,69.1,49.1,101.1,49.1,101.1s5.5,19.3-6.6,42.2c-0.5,1-1.8,1.4-2.9,0.8
			c-17.4-10.3-152.5-94.5-88.8-204.8C201,263.5,201.7,263.4,202.1,263.6z"/>
	</g>
	<linearGradient id="SVGID_3_" gradientUnits="userSpaceOnUse" x1="253.2128" y1="309.9213" x2="343.0015" y2="309.9213">
		<stop  offset="0" style="stop-color:#FF3271"/>
		<stop  offset="1" style="stop-color:#FF002A"/>
	</linearGradient>
	<path class="st2" d="M280.9,327.1c-16.9-16.9-18.9-43-6-62.1c-2.6,1.7-5,3.7-7.3,6c-19.2,19.2-19.2,50.2,0,69.4s50.2,19.2,69.4,0
		c2.3-2.3,4.3-4.7,6-7.3C323.9,346,297.8,344,280.9,327.1z"/>
	<linearGradient id="SVGID_4_" gradientUnits="userSpaceOnUse" x1="341.9413" y1="300.0061" x2="274.8253" y2="300.0061">
		<stop  offset="0" style="stop-color:#FF3271"/>
		<stop  offset="1" style="stop-color:#FF002A"/>
	</linearGradient>
	<path class="st3" d="M331.1,291.4h-13v-13c0-4.8-3.9-8.7-8.7-8.7c-4.8,0-8.7,3.9-8.7,8.7v13h-13c-4.8,0-8.7,3.9-8.7,8.7v0
		c0,4.8,3.9,8.7,8.7,8.7h13v13c0,4.8,3.9,8.7,8.7,8.7c4.8,0,8.7-3.9,8.7-8.7v-13h13c4.8,0,8.7-3.9,8.7-8.7v0
		C339.8,295.2,335.9,291.4,331.1,291.4z"/>
</g>
</svg>
